<?xml version="1.0" encoding="UTF-8" standalone="no"?>
<svg
   id="Bold"
   viewBox="0 0 1.125 1.125"
   width="24"
   height="24"
   version="1.1"
   sodipodi:docname="account-icon.svg"
   inkscape:version="1.3.2 (091e20e, 2023-11-25, custom)"
   xmlns:inkscape="http://www.inkscape.org/namespaces/inkscape"
   xmlns:sodipodi="http://sodipodi.sourceforge.net/DTD/sodipodi-0.dtd"
   xmlns="http://www.w3.org/2000/svg"
   xmlns:svg="http://www.w3.org/2000/svg">
  <defs
     id="defs1" />
  <sodipodi:namedview
     id="namedview1"
     pagecolor="#ffffff"
     bordercolor="#000000"
     borderopacity="0.25"
     inkscape:showpageshadow="2"
     inkscape:pageopacity="0.0"
     inkscape:pagecheckerboard="0"
     inkscape:deskcolor="#d1d1d1"
     inkscape:zoom="11.313708"
     inkscape:cx="21.257398"
     inkscape:cy="16.926369"
     inkscape:window-width="1920"
     inkscape:window-height="991"
     inkscape:window-x="-9"
     inkscape:window-y="-9"
     inkscape:window-maximized="1"
     inkscape:current-layer="Bold" />
  <g
     id="g1"
     transform="matrix(0.04393119,0,0,0.04393119,0.01768541,-0.00809661)">
    <path
       d="M 18.901544,0.98841699 H 5.9015444 a 5.506,5.506 0 0 0 -5.5,5.50000001 v 13 a 5.506,5.506 0 0 0 5.5,5.5 H 18.901544 a 5.506,5.506 0 0 0 5.5,-5.5 v -13 a 5.506,5.506 0 0 0 -5.5,-5.50000001 z m 2.5,18.50000001 a 2.5,2.5 0 0 1 -2.5,2.5 h -0.5 v -1 a 6,6 0 0 0 -11.9999996,0 v 1 h -0.5 a 2.5,2.5 0 0 1 -2.5,-2.5 v -13 a 2.5,2.5 0 0 1 2.5,-2.5 H 18.901544 a 2.5,2.5 0 0 1 2.5,2.5 z"
       id="path1" />
    <circle
       cx="12.401545"
       cy="9.4884167"
       r="3.5"
       id="circle1" />
  </g>
</svg>
