<?xml version="1.0" encoding="UTF-8" standalone="no"?>
<svg
   width="40"
   height="35"
   viewBox="0 0 40 35"
   fill="none"
   version="1.1"
   id="svg5"
   sodipodi:docname="apartment-icon-tree.svg"
   inkscape:version="1.3.2 (091e20e, 2023-11-25, custom)"
   xmlns:inkscape="http://www.inkscape.org/namespaces/inkscape"
   xmlns:sodipodi="http://sodipodi.sourceforge.net/DTD/sodipodi-0.dtd"
   xmlns="http://www.w3.org/2000/svg"
   xmlns:svg="http://www.w3.org/2000/svg">
  <sodipodi:namedview
     id="namedview5"
     pagecolor="#ffffff"
     bordercolor="#000000"
     borderopacity="0.25"
     inkscape:showpageshadow="2"
     inkscape:pageopacity="0.0"
     inkscape:pagecheckerboard="0"
     inkscape:deskcolor="#d1d1d1"
     inkscape:zoom="15.556349"
     inkscape:cx="22.498852"
     inkscape:cy="13.402888"
     inkscape:window-width="1920"
     inkscape:window-height="991"
     inkscape:window-x="-9"
     inkscape:window-y="-9"
     inkscape:window-maximized="1"
     inkscape:current-layer="svg5" />
  <circle
     cx="16.064283"
     cy="19"
     r="16"
     fill="#14453d"
     fill-opacity="0.1"
     id="circle1" />
  <defs
     id="defs5"><clipPath
   id="clip0_11333_1800">
  <rect
     width="32"
     height="32"
     fill="white"
     transform="translate(8)"
     id="rect5" />
</clipPath>

			
				
			
			
			
			
			
			
		<radialGradient
   id="SVGID_00000155852412105244876220000004722859630073219770_"
   cx="233.9946"
   cy="277.90259"
   r="61.0336"
   gradientTransform="matrix(1,0,0,-1,0,457.1719)"
   gradientUnits="userSpaceOnUse">
				<stop
   offset="0"
   style="stop-color:#808080"
   id="stop23" />

				<stop
   offset="0.0717"
   style="stop-color:#6F6F6F"
   id="stop24" />

				<stop
   offset="0.2297"
   style="stop-color:#515151"
   id="stop25" />

				<stop
   offset="0.3955"
   style="stop-color:#393939"
   id="stop26" />

				<stop
   offset="0.5702"
   style="stop-color:#272727"
   id="stop27" />

				<stop
   offset="0.7599"
   style="stop-color:#1D1D1D"
   id="stop28" />

				<stop
   offset="0.9917"
   style="stop-color:#1A1A1A"
   id="stop29" />

			</radialGradient>
<radialGradient
   id="SVGID_00000029757923731533439250000007425132396407294894_"
   cx="166.6367"
   cy="277.90259"
   r="61.0313"
   gradientTransform="matrix(1,0,0,-1,0,457.1719)"
   gradientUnits="userSpaceOnUse">
				<stop
   offset="0"
   style="stop-color:#808080"
   id="stop30" />

				<stop
   offset="0.0717"
   style="stop-color:#6F6F6F"
   id="stop31" />

				<stop
   offset="0.2297"
   style="stop-color:#515151"
   id="stop32" />

				<stop
   offset="0.3955"
   style="stop-color:#393939"
   id="stop33" />

				<stop
   offset="0.5702"
   style="stop-color:#272727"
   id="stop34" />

				<stop
   offset="0.7599"
   style="stop-color:#1D1D1D"
   id="stop35" />

				<stop
   offset="0.9917"
   style="stop-color:#1A1A1A"
   id="stop36" />

			</radialGradient>
<radialGradient
   id="SVGID_00000115479685738315426780000007528202086467583165_"
   cx="233.9946"
   cy="353.93011"
   r="61.033401"
   gradientTransform="matrix(1,0,0,-1,0,457.1719)"
   gradientUnits="userSpaceOnUse">
				<stop
   offset="0"
   style="stop-color:#808080"
   id="stop37" />

				<stop
   offset="0.0717"
   style="stop-color:#6F6F6F"
   id="stop38" />

				<stop
   offset="0.2297"
   style="stop-color:#515151"
   id="stop39" />

				<stop
   offset="0.3955"
   style="stop-color:#393939"
   id="stop40" />

				<stop
   offset="0.5702"
   style="stop-color:#272727"
   id="stop41" />

				<stop
   offset="0.7599"
   style="stop-color:#1D1D1D"
   id="stop42" />

				<stop
   offset="0.9917"
   style="stop-color:#1A1A1A"
   id="stop43" />

			</radialGradient>
<radialGradient
   id="SVGID_00000044875861727232901180000006864684661637150385_"
   cx="166.6367"
   cy="353.93011"
   r="61.0312"
   gradientTransform="matrix(1,0,0,-1,0,457.1719)"
   gradientUnits="userSpaceOnUse">
				<stop
   offset="0"
   style="stop-color:#808080"
   id="stop44" />

				<stop
   offset="0.0717"
   style="stop-color:#6F6F6F"
   id="stop45" />

				<stop
   offset="0.2297"
   style="stop-color:#515151"
   id="stop46" />

				<stop
   offset="0.3955"
   style="stop-color:#393939"
   id="stop47" />

				<stop
   offset="0.5702"
   style="stop-color:#272727"
   id="stop48" />

				<stop
   offset="0.7599"
   style="stop-color:#1D1D1D"
   id="stop49" />

				<stop
   offset="0.9917"
   style="stop-color:#1A1A1A"
   id="stop50" />

			</radialGradient>
<radialGradient
   id="SVGID_00000067217833136936455850000004011425616992172201_"
   cx="169.7473"
   cy="241.795"
   r="250.6098"
   gradientTransform="matrix(1,0,0,-1,0,457.1719)"
   gradientUnits="userSpaceOnUse">
				<stop
   offset="0"
   style="stop-color:#D1D3D4"
   id="stop51" />

				<stop
   offset="1"
   style="stop-color:#939598"
   id="stop52" />

			</radialGradient>
<radialGradient
   id="SVGID_00000009555322875130593090000001808279571079560888_"
   cx="188.8647"
   cy="330.6983"
   r="34.013802"
   gradientTransform="rotate(180,190.6211,228.58595)"
   gradientUnits="userSpaceOnUse">
					<stop
   offset="0"
   style="stop-color:#808080"
   id="stop53" />

					<stop
   offset="0.0717"
   style="stop-color:#6F6F6F"
   id="stop54" />

					<stop
   offset="0.2297"
   style="stop-color:#515151"
   id="stop55" />

					<stop
   offset="0.3955"
   style="stop-color:#393939"
   id="stop56" />

					<stop
   offset="0.5702"
   style="stop-color:#272727"
   id="stop57" />

					<stop
   offset="0.7599"
   style="stop-color:#1D1D1D"
   id="stop58" />

					<stop
   offset="0.9917"
   style="stop-color:#1A1A1A"
   id="stop59" />

				</radialGradient>
<radialGradient
   id="SVGID_00000173160634879980600250000005829597898029233313_"
   cx="188.6774"
   cy="357.84229"
   r="34.088001"
   gradientTransform="rotate(180,190.6211,228.58595)"
   gradientUnits="userSpaceOnUse">
					<stop
   offset="0"
   style="stop-color:#808080"
   id="stop60" />

					<stop
   offset="0.0717"
   style="stop-color:#6F6F6F"
   id="stop61" />

					<stop
   offset="0.2297"
   style="stop-color:#515151"
   id="stop62" />

					<stop
   offset="0.3955"
   style="stop-color:#393939"
   id="stop63" />

					<stop
   offset="0.5702"
   style="stop-color:#272727"
   id="stop64" />

					<stop
   offset="0.7599"
   style="stop-color:#1D1D1D"
   id="stop65" />

					<stop
   offset="0.9917"
   style="stop-color:#1A1A1A"
   id="stop66" />

				</radialGradient>
<radialGradient
   id="SVGID_00000156558342614443814730000008674346942039921845_"
   cx="181.5421"
   cy="362.4505"
   r="31.383699"
   gradientTransform="matrix(1,0,0,-1,0,457.1719)"
   gradientUnits="userSpaceOnUse">
				<stop
   offset="0"
   style="stop-color:#A7A9AC;stop-opacity:0.4"
   id="stop67" />

				<stop
   offset="1"
   style="stop-color:#A7A9AC;stop-opacity:0.4"
   id="stop68" />

			</radialGradient>
<radialGradient
   id="SVGID_00000165914870607283949090000000137373491263723695_"
   cx="161.9713"
   cy="267.99759"
   r="1.6378"
   gradientTransform="matrix(1,0,0,-1,0,457.1719)"
   gradientUnits="userSpaceOnUse">
					<stop
   offset="0"
   style="stop-color:#000000;stop-opacity:0"
   id="stop69" />

					<stop
   offset="0.9918"
   style="stop-color:#000000;stop-opacity:0.2"
   id="stop70" />

				</radialGradient>
<radialGradient
   id="SVGID_00000107589850277857284490000012096393912166393242_"
   cx="184.9738"
   cy="244.97771"
   r="197.9814"
   gradientTransform="matrix(1,0,0,-1,0,457.1719)"
   gradientUnits="userSpaceOnUse">
					<stop
   offset="0"
   style="stop-color:#00005E;stop-opacity:0"
   id="stop71" />

					<stop
   offset="0.9816"
   style="stop-color:#00004C;stop-opacity:0.2"
   id="stop72" />

				</radialGradient>
<radialGradient
   id="SVGID_00000182510821718836228720000004758363883219369107_"
   cx="198.3856"
   cy="265.17731"
   r="1.7153"
   gradientTransform="matrix(1,0,0,-1,0,457.1719)"
   gradientUnits="userSpaceOnUse">
					<stop
   offset="0"
   style="stop-color:#000000;stop-opacity:0"
   id="stop73" />

					<stop
   offset="0.9918"
   style="stop-color:#000000;stop-opacity:0.2"
   id="stop74" />

				</radialGradient>
<radialGradient
   id="SVGID_00000088125950383394135130000006564974008682500010_"
   cx="180.5127"
   cy="331.63599"
   r="33.912601"
   gradientTransform="matrix(1,0,0,-1,0,457.1719)"
   gradientUnits="userSpaceOnUse">
				<stop
   offset="0"
   style="stop-color:#FFFFFF;stop-opacity:0.1"
   id="stop75" />

				<stop
   offset="1"
   style="stop-color:#FFFFFF;stop-opacity:0.1"
   id="stop76" />

			</radialGradient>
<radialGradient
   id="SVGID_00000172400014900915604990000017516756922592530305_"
   cx="158.0468"
   cy="356.47171"
   r="24.790899"
   gradientTransform="matrix(1,0,0,-1,0,457.1719)"
   gradientUnits="userSpaceOnUse">
				<stop
   offset="0"
   style="stop-color:#F1F1F1"
   id="stop77" />

				<stop
   offset="0.6619"
   style="stop-color:#EEEEEE"
   id="stop78" />

				<stop
   offset="0.9917"
   style="stop-color:#CBCBCB"
   id="stop79" />

			</radialGradient>
<radialGradient
   id="SVGID_00000000906903279536843340000003149175008085591739_"
   cx="-4761.0317"
   cy="355.94531"
   r="24.791201"
   gradientTransform="rotate(180,-2278.5,228.58595)"
   gradientUnits="userSpaceOnUse">
				<stop
   offset="0"
   style="stop-color:#F1F1F1"
   id="stop80" />

				<stop
   offset="0.6619"
   style="stop-color:#EEEEEE"
   id="stop81" />

				<stop
   offset="0.9917"
   style="stop-color:#CBCBCB"
   id="stop82" />

			</radialGradient>
<radialGradient
   id="SVGID_00000082345343861161057130000001572483828009650340_"
   cx="180.7166"
   cy="332.25851"
   r="65.1362"
   gradientTransform="matrix(1,0,0,-1,0,457.1719)"
   gradientUnits="userSpaceOnUse">
				<stop
   offset="0"
   style="stop-color:#A7A9AC;stop-opacity:0.4"
   id="stop83" />

				<stop
   offset="1"
   style="stop-color:#A7A9AC;stop-opacity:0.4"
   id="stop84" />

			</radialGradient>
<radialGradient
   id="SVGID_00000137814544514390472020000005765403791930585271_"
   cx="178.7383"
   cy="246.7254"
   r="99.504898"
   gradientTransform="matrix(1,0,0,-1,0,457.1719)"
   gradientUnits="userSpaceOnUse">
				<stop
   offset="0"
   style="stop-color:#A7A9AC;stop-opacity:0.4"
   id="stop85" />

				<stop
   offset="1"
   style="stop-color:#A7A9AC;stop-opacity:0.4"
   id="stop86" />

			</radialGradient>
<radialGradient
   id="SVGID_00000068658310874100956770000004192735316059531913_"
   cx="161.46899"
   cy="270.8638"
   r="12.2131"
   gradientTransform="matrix(1,0,0,-1,0,457.1719)"
   gradientUnits="userSpaceOnUse">
				<stop
   offset="0"
   style="stop-color:#A7A9AC;stop-opacity:0.4"
   id="stop87" />

				<stop
   offset="1"
   style="stop-color:#A7A9AC;stop-opacity:0.4"
   id="stop88" />

			</radialGradient>
<radialGradient
   id="SVGID_00000044893761304213021920000010450911306398496655_"
   cx="199.2932"
   cy="270.99579"
   r="12.4616"
   gradientTransform="matrix(1,0,0,-1,0,457.1719)"
   gradientUnits="userSpaceOnUse">
				<stop
   offset="0"
   style="stop-color:#A7A9AC;stop-opacity:0.4"
   id="stop89" />

				<stop
   offset="1"
   style="stop-color:#A7A9AC;stop-opacity:0.4"
   id="stop90" />

			</radialGradient>
<radialGradient
   id="SVGID_00000103961012535974674440000015701107766149223100_"
   cx="177.2883"
   cy="237.73351"
   r="113.992"
   gradientTransform="matrix(1,0,0,-1,0,457.1719)"
   gradientUnits="userSpaceOnUse">
				<stop
   offset="0"
   style="stop-color:#808080"
   id="stop91" />

				<stop
   offset="0.0717"
   style="stop-color:#6F6F6F"
   id="stop92" />

				<stop
   offset="0.2297"
   style="stop-color:#515151"
   id="stop93" />

				<stop
   offset="0.3955"
   style="stop-color:#393939"
   id="stop94" />

				<stop
   offset="0.5702"
   style="stop-color:#272727"
   id="stop95" />

				<stop
   offset="0.7599"
   style="stop-color:#1D1D1D"
   id="stop96" />

				<stop
   offset="0.9917"
   style="stop-color:#1A1A1A"
   id="stop97" />

			</radialGradient>
<radialGradient
   id="SVGID_00000039828615572068059550000007136716029168838334_"
   cx="169.6452"
   cy="331.52328"
   r="34.0112"
   gradientTransform="matrix(1,0,0,-1,0,457.1719)"
   gradientUnits="userSpaceOnUse">
					<stop
   offset="0"
   style="stop-color:#808080"
   id="stop98" />

					<stop
   offset="0.0717"
   style="stop-color:#6F6F6F"
   id="stop99" />

					<stop
   offset="0.2297"
   style="stop-color:#515151"
   id="stop100" />

					<stop
   offset="0.3955"
   style="stop-color:#393939"
   id="stop101" />

					<stop
   offset="0.5702"
   style="stop-color:#272727"
   id="stop102" />

					<stop
   offset="0.7599"
   style="stop-color:#1D1D1D"
   id="stop103" />

					<stop
   offset="0.9917"
   style="stop-color:#1A1A1A"
   id="stop104" />

				</radialGradient>
<radialGradient
   id="SVGID_00000041268260388341489620000017776936941911560851_"
   cx="169.4577"
   cy="358.66699"
   r="34.086102"
   gradientTransform="matrix(1,0,0,-1,0,457.1719)"
   gradientUnits="userSpaceOnUse">
					<stop
   offset="0"
   style="stop-color:#808080"
   id="stop105" />

					<stop
   offset="0.0717"
   style="stop-color:#6F6F6F"
   id="stop106" />

					<stop
   offset="0.2297"
   style="stop-color:#515151"
   id="stop107" />

					<stop
   offset="0.3955"
   style="stop-color:#393939"
   id="stop108" />

					<stop
   offset="0.5702"
   style="stop-color:#272727"
   id="stop109" />

					<stop
   offset="0.7599"
   style="stop-color:#1D1D1D"
   id="stop110" />

					<stop
   offset="0.9917"
   style="stop-color:#1A1A1A"
   id="stop111" />

				</radialGradient>
<radialGradient
   id="SVGID_00000176007218077047259900000000439844473747044026_"
   cx="146.4641"
   cy="348.5058"
   r="117.7847"
   gradientTransform="matrix(1,0,0,-1,0,457.1719)"
   gradientUnits="userSpaceOnUse">
				<stop
   offset="0"
   style="stop-color:#808080"
   id="stop112" />

				<stop
   offset="0.0717"
   style="stop-color:#6F6F6F"
   id="stop113" />

				<stop
   offset="0.2297"
   style="stop-color:#515151"
   id="stop114" />

				<stop
   offset="0.3955"
   style="stop-color:#393939"
   id="stop115" />

				<stop
   offset="0.5702"
   style="stop-color:#272727"
   id="stop116" />

				<stop
   offset="0.7599"
   style="stop-color:#1D1D1D"
   id="stop117" />

				<stop
   offset="0.9917"
   style="stop-color:#1A1A1A"
   id="stop118" />

			</radialGradient>
<radialGradient
   id="SVGID_00000094607643830713560930000001985651924355335049_"
   cx="161.467"
   cy="412.68799"
   r="5.4113998"
   gradientTransform="matrix(1,0,0,-1,0,457.1719)"
   gradientUnits="userSpaceOnUse">
					<stop
   offset="0"
   style="stop-color:#A7A9AC;stop-opacity:0.4"
   id="stop119" />

					<stop
   offset="1"
   style="stop-color:#A7A9AC;stop-opacity:0.4"
   id="stop120" />

				</radialGradient>
<radialGradient
   id="SVGID_00000075135098437347230750000003293830822658262419_"
   cx="181.03951"
   cy="392.2511"
   r="16.5469"
   gradientTransform="matrix(1,0,0,-1,0,457.1719)"
   gradientUnits="userSpaceOnUse">
				<stop
   offset="0"
   style="stop-color:#A7A9AC;stop-opacity:0.4"
   id="stop121" />

				<stop
   offset="1"
   style="stop-color:#A7A9AC;stop-opacity:0.4"
   id="stop122" />

			</radialGradient>
<radialGradient
   id="SVGID_00000139996565096105889250000005681359095632385961_"
   cx="192.0966"
   cy="356.03339"
   r="22.8524"
   gradientTransform="matrix(1,0,0,-1,0,457.1719)"
   gradientUnits="userSpaceOnUse">
					<stop
   offset="0"
   style="stop-color:#A7A9AC;stop-opacity:0.4"
   id="stop123" />

					<stop
   offset="1"
   style="stop-color:#A7A9AC;stop-opacity:0.4"
   id="stop124" />

				</radialGradient>
<radialGradient
   id="SVGID_00000015355723603078398130000002796897103490731168_"
   cx="184.1404"
   cy="356.03339"
   r="22.8524"
   gradientTransform="matrix(1,0,0,-1,0,457.1719)"
   gradientUnits="userSpaceOnUse">
					<stop
   offset="0"
   style="stop-color:#A7A9AC;stop-opacity:0.4"
   id="stop125" />

					<stop
   offset="1"
   style="stop-color:#A7A9AC;stop-opacity:0.4"
   id="stop126" />

				</radialGradient>
<radialGradient
   id="SVGID_00000121962226939621952270000007770324031600342454_"
   cx="176.18381"
   cy="356.03339"
   r="22.8524"
   gradientTransform="matrix(1,0,0,-1,0,457.1719)"
   gradientUnits="userSpaceOnUse">
					<stop
   offset="0"
   style="stop-color:#A7A9AC;stop-opacity:0.4"
   id="stop127" />

					<stop
   offset="1"
   style="stop-color:#A7A9AC;stop-opacity:0.4"
   id="stop128" />

				</radialGradient>
<radialGradient
   id="SVGID_00000104684181802540221000000003233422611805978496_"
   cx="168.22681"
   cy="356.03339"
   r="22.8524"
   gradientTransform="matrix(1,0,0,-1,0,457.1719)"
   gradientUnits="userSpaceOnUse">
					<stop
   offset="0"
   style="stop-color:#A7A9AC;stop-opacity:0.4"
   id="stop129" />

					<stop
   offset="1"
   style="stop-color:#A7A9AC;stop-opacity:0.4"
   id="stop130" />

				</radialGradient>
<radialGradient
   id="SVGID_00000108296103854259101450000004343228882900928388_"
   cx="194.2029"
   cy="356.03339"
   r="22.8524"
   gradientTransform="matrix(1,0,0,-1,0,457.1719)"
   gradientUnits="userSpaceOnUse">
					<stop
   offset="0"
   style="stop-color:#FFFFFF;stop-opacity:0.1"
   id="stop131" />

					<stop
   offset="1"
   style="stop-color:#FFFFFF;stop-opacity:0.1"
   id="stop132" />

				</radialGradient>
<radialGradient
   id="SVGID_00000066486306757676819570000001694403593316124085_"
   cx="186.24631"
   cy="356.03339"
   r="22.8524"
   gradientTransform="matrix(1,0,0,-1,0,457.1719)"
   gradientUnits="userSpaceOnUse">
					<stop
   offset="0"
   style="stop-color:#FFFFFF;stop-opacity:0.1"
   id="stop133" />

					<stop
   offset="1"
   style="stop-color:#FFFFFF;stop-opacity:0.1"
   id="stop134" />

				</radialGradient>
<radialGradient
   id="SVGID_00000064328377939377281270000007029044414110746499_"
   cx="178.2896"
   cy="356.03339"
   r="22.8524"
   gradientTransform="matrix(1,0,0,-1,0,457.1719)"
   gradientUnits="userSpaceOnUse">
					<stop
   offset="0"
   style="stop-color:#FFFFFF;stop-opacity:0.1"
   id="stop135" />

					<stop
   offset="1"
   style="stop-color:#FFFFFF;stop-opacity:0.1"
   id="stop136" />

				</radialGradient>
<radialGradient
   id="SVGID_00000093858297113757899620000012942562946915434888_"
   cx="170.33299"
   cy="356.03339"
   r="22.8524"
   gradientTransform="matrix(1,0,0,-1,0,457.1719)"
   gradientUnits="userSpaceOnUse">
					<stop
   offset="0"
   style="stop-color:#FFFFFF;stop-opacity:0.1"
   id="stop137" />

					<stop
   offset="1"
   style="stop-color:#FFFFFF;stop-opacity:0.1"
   id="stop138" />

				</radialGradient>
<radialGradient
   id="SVGID_00000006688485918639805660000017021282217521043866_"
   cx="205.48869"
   cy="444.0975"
   r="279.62939"
   gradientTransform="matrix(1,0,0,-1,0,457.1719)"
   gradientUnits="userSpaceOnUse">
			<stop
   offset="0"
   style="stop-color:#FFFFFF;stop-opacity:0.3"
   id="stop139" />

			<stop
   offset="0.9981"
   style="stop-color:#FFFFFF;stop-opacity:0"
   id="stop140" />

		</radialGradient>

		
		
		
		
			<radialGradient
   id="radialGradient236"
   cx="205.48869"
   cy="444.0975"
   r="279.62939"
   gradientTransform="matrix(1,0,0,-1,0,457.1719)"
   gradientUnits="userSpaceOnUse">
			<stop
   offset="0"
   style="stop-color:#FFFFFF;stop-opacity:0.3"
   id="stop235" />

			<stop
   offset="0.9981"
   style="stop-color:#FFFFFF;stop-opacity:0"
   id="stop236" />

		</radialGradient>

		
	</defs>
  <g
     id="g105"
     transform="matrix(0.28565638,0,0,0.28565638,-80.636958,-16.511795)"
     style="fill:#14453d;fill-opacity:1">
		<path
   class="st1"
   d="m 344.97,127.01 c 0.31,-0.51 0.48,-1.1 0.52,-1.7 l 16.1,4.08 -2.65,-6.9 H 360 l 3.32,7.14 5.95,1.06 0.4,-14.2 -4.66,-4.31 -11.22,-0.15 -0.52,-1.04 h 10.45 l -10.58,-9.79 0.36,-1.6 7.16,6.29 -2.87,-11.05 0.87,0.35 3.79,12.27 7.06,6.2 1.87,-35.99 h 1.6 l 0.18,10.61 7.36,-6.86 1.6,0.18 -8.6,8.63 0.67,22.53 9.64,-7.95 0.89,-7.65 0.71,-1.24 v 7.83 l 6.58,-4.27 1.78,-0.18 -19.6,15.79 0.25,18.3 19.47,-9.12 2.67,-6.4 1.42,-0.36 -2.49,6.22 10.32,-3.2 -0.18,0.71 -18.32,8.71 10.14,0.71 -1.24,1.07 -11.03,-0.53 -10.59,5.84 0.18,39.62 -6.66,-0.01 0.71,-43.06 z"
   id="path59"
   style="fill:#14453d;fill-opacity:1" />

		<g
   id="g99"
   style="fill:#14453d;fill-opacity:1">
			<path
   class="st7"
   d="m 385.27,62.45 c 0,0 4.28,7.39 2.73,12.54 -1.54,5.14 -7.48,7.3 -7.48,7.3 0,0 -2.65,-7.09 -1.53,-11.18 1.13,-4.1 6.28,-8.66 6.28,-8.66"
   id="path60"
   style="fill:#14453d;fill-opacity:1" />

			<path
   class="st6"
   d="m 383.95,69.68 c 0,0 2.38,4.11 1.52,6.97 -0.86,2.86 -4.16,4.06 -4.16,4.06 0,0 -1.47,-3.94 -0.85,-6.22 0.62,-2.28 3.49,-4.81 3.49,-4.81"
   id="path61"
   style="fill:#14453d;fill-opacity:1" />

			<path
   class="st7"
   d="m 398.88,76.91 c 0,0 -4.01,6.96 -8.93,8.13 -4.92,1.16 -9.46,-2.66 -9.46,-2.66 0,0 4.53,-5.5 8.39,-6.51 3.85,-1.01 10,1.04 10,1.04"
   id="path62"
   style="fill:#14453d;fill-opacity:1" />

			<path
   class="st6"
   d="m 392.36,79.23 c 0,0 -2.23,3.87 -4.96,4.52 -2.73,0.65 -5.26,-1.48 -5.26,-1.48 0,0 2.52,-3.06 4.66,-3.62 2.15,-0.56 5.56,0.58 5.56,0.58"
   id="path63"
   style="fill:#14453d;fill-opacity:1" />

			<path
   class="st7"
   d="m 380.5,84.62 c 0,0 5.44,2.8 6.5,6.5 1.06,3.7 -1.68,7.29 -1.68,7.29 0,0 -4.34,-3.25 -5.25,-6.15 -0.91,-2.89 0.43,-7.64 0.43,-7.64"
   id="path64"
   style="fill:#14453d;fill-opacity:1" />

			<path
   class="st6"
   d="m 382.5,89.5 c 0,0 3.02,1.56 3.61,3.61 0.59,2.06 -0.93,4.05 -0.93,4.05 0,0 -2.42,-1.8 -2.92,-3.42 -0.5,-1.61 0.24,-4.24 0.24,-4.24"
   id="path65"
   style="fill:#14453d;fill-opacity:1" />

			<path
   class="st7"
   d="m 392.78,86.15 c 0,0 3.68,4.89 3.03,8.68 -0.65,3.79 -4.68,5.84 -4.68,5.84 0,0 -2.5,-4.81 -2.06,-7.82 0.44,-3.01 3.71,-6.7 3.71,-6.7"
   id="path66"
   style="fill:#14453d;fill-opacity:1" />

			<path
   class="st6"
   d="m 392.47,91.41 c 0,0 2.05,2.72 1.68,4.83 -0.36,2.11 -2.6,3.24 -2.6,3.24 0,0 -1.39,-2.67 -1.14,-4.34 0.24,-1.68 2.06,-3.73 2.06,-3.73"
   id="path67"
   style="fill:#14453d;fill-opacity:1" />

			<path
   class="st7"
   d="m 406.02,92.03 c 0,0 -2.11,7.23 -6.33,9.39 -4.22,2.15 -9.21,-0.32 -9.21,-0.32 0,0 2.9,-6.01 6.19,-7.79 3.3,-1.79 9.35,-1.28 9.35,-1.28"
   id="path68-2"
   style="fill:#14453d;fill-opacity:1" />

			<path
   class="st6"
   d="m 400.6,95.59 c 0,0 -1.17,4.02 -3.51,5.22 -2.35,1.2 -5.12,-0.18 -5.12,-0.18 0,0 1.61,-3.34 3.44,-4.33 1.83,-0.99 5.19,-0.71 5.19,-0.71"
   id="path69"
   style="fill:#14453d;fill-opacity:1" />

			<path
   class="st7"
   d="m 406.63,102.63 c 0,0 1.41,8.09 -1.69,12.22 -3.1,4.13 -9.17,4.11 -9.17,4.11 0,0 -0.04,-7.27 2.33,-10.6 2.37,-3.32 8.53,-5.73 8.53,-5.73"
   id="path70-4"
   style="fill:#14453d;fill-opacity:1" />

			<path
   class="st6"
   d="m 403.04,108.72 c 0,0 0.78,4.5 -0.94,6.79 -1.72,2.3 -5.1,2.28 -5.1,2.28 0,0 -0.02,-4.04 1.29,-5.89 1.32,-1.84 4.75,-3.18 4.75,-3.18"
   id="path71"
   style="fill:#14453d;fill-opacity:1" />

			<path
   class="st7"
   d="m 354.31,70.45 c 0,0 7.93,-2.85 12.66,-0.45 4.72,2.4 5.77,8.55 5.77,8.55 0,0 -7.35,1.33 -11.13,-0.48 -3.78,-1.81 -7.3,-7.62 -7.3,-7.62"
   id="path72-5"
   style="fill:#14453d;fill-opacity:1" />

			<path
   class="st6"
   d="m 361.09,73.01 c 0,0 4.41,-1.59 7.04,-0.25 2.63,1.34 3.21,4.75 3.21,4.75 0,0 -4.09,0.74 -6.19,-0.26 -2.09,-1.02 -4.06,-4.24 -4.06,-4.24"
   id="path73"
   style="fill:#14453d;fill-opacity:1" />

			<path
   class="st7"
   d="m 371.69,58.36 c 0,0 6.05,5.87 5.96,11.18 -0.09,5.3 -5.14,8.94 -5.14,8.94 0,0 -4.42,-6.02 -4.46,-10.21 -0.03,-4.19 3.64,-9.91 3.64,-9.91"
   id="path74-0"
   style="fill:#14453d;fill-opacity:1" />

			<path
   class="st6"
   d="m 372.38,65.58 c 0,0 3.36,3.27 3.32,6.21 -0.05,2.95 -2.86,4.97 -2.86,4.97 0,0 -2.46,-3.35 -2.48,-5.68 -0.02,-2.32 2.02,-5.5 2.02,-5.5"
   id="path75"
   style="fill:#14453d;fill-opacity:1" />

			<path
   class="st7"
   d="m 372.65,91.46 c 0,0 5.88,-1.71 9.19,0.25 3.31,1.95 3.8,6.45 3.8,6.45 0,0 -5.38,0.63 -8.04,-0.85 -2.66,-1.48 -4.95,-5.85 -4.95,-5.85"
   id="path76"
   style="fill:#14453d;fill-opacity:1" />

			<path
   class="st6"
   d="m 377.45,93.63 c 0,0 3.27,-0.95 5.11,0.14 1.84,1.09 2.11,3.59 2.11,3.59 0,0 -2.99,0.35 -4.47,-0.47 -1.47,-0.84 -2.75,-3.26 -2.75,-3.26"
   id="path77"
   style="fill:#14453d;fill-opacity:1" />

			<path
   class="st7"
   d="m 341.11,116.3 c 0,0 2.97,-5.35 6.7,-6.29 3.73,-0.94 7.24,1.91 7.24,1.91 0,0 -3.38,4.24 -6.31,5.05 -2.93,0.81 -7.63,-0.67 -7.63,-0.67"
   id="path78"
   style="fill:#14453d;fill-opacity:1" />

			<path
   class="st6"
   d="m 346.04,114.45 c 0,0 1.65,-2.97 3.72,-3.5 2.08,-0.53 4.02,1.06 4.02,1.06 0,0 -1.88,2.36 -3.51,2.81 -1.61,0.46 -4.23,-0.37 -4.23,-0.37"
   id="path79"
   style="fill:#14453d;fill-opacity:1" />

			<path
   class="st7"
   d="m 334.9,92.66 c 0,0 8.65,-3.02 13.75,-0.37 5.11,2.66 6.19,9.34 6.19,9.34 0,0 -8,1.37 -12.09,-0.63 -4.07,-1.99 -7.85,-8.34 -7.85,-8.34"
   id="path80"
   style="fill:#14453d;fill-opacity:1" />

			<path
   class="st6"
   d="m 342.25,95.5 c 0,0 4.81,-1.68 7.65,-0.21 2.84,1.48 3.44,5.19 3.44,5.19 0,0 -4.45,0.77 -6.72,-0.35 -2.27,-1.1 -4.37,-4.63 -4.37,-4.63"
   id="path81"
   style="fill:#14453d;fill-opacity:1" />

			<path
   class="st7"
   d="m 348.63,82.12 c 0,0 7.36,1.6 9.8,5.66 2.44,4.06 0.33,9.21 0.33,9.21 0,0 -6.2,-2.48 -8.2,-5.64 -2.01,-3.16 -1.93,-9.23 -1.93,-9.23"
   id="path82"
   style="fill:#14453d;fill-opacity:1" />

			<path
   class="st6"
   d="m 352.56,87.28 c 0,0 4.09,0.89 5.45,3.14 1.36,2.26 0.18,5.12 0.18,5.12 0,0 -3.45,-1.38 -4.56,-3.13 -1.11,-1.76 -1.07,-5.13 -1.07,-5.13"
   id="path83"
   style="fill:#14453d;fill-opacity:1" />

			<path
   class="st7"
   d="m 362.11,78.12 c 0,0 4.68,6.74 3.61,11.79 -1.07,5.05 -6.58,7.59 -6.58,7.59 0,0 -3.1,-6.58 -2.36,-10.59 0.76,-4.01 5.33,-8.79 5.33,-8.79"
   id="path84-5"
   style="fill:#14453d;fill-opacity:1" />

			<path
   class="st6"
   d="m 361.42,85.15 c 0,0 2.61,3.75 2.01,6.56 -0.6,2.81 -3.66,4.22 -3.66,4.22 0,0 -1.73,-3.66 -1.31,-5.89 0.42,-2.23 2.96,-4.89 2.96,-4.89"
   id="path85"
   style="fill:#14453d;fill-opacity:1" />

			<path
   class="st7"
   d="m 419.4,130.87 c 0,0 -7.39,1.48 -11.25,-1.26 -3.86,-2.74 -3.99,-8.31 -3.99,-8.31 0,0 6.67,-0.21 9.77,1.88 3.11,2.09 5.47,7.69 5.47,7.69"
   id="path86-9"
   style="fill:#14453d;fill-opacity:1" />

			<path
   class="st6"
   d="m 413.73,127.72 c 0,0 -4.11,0.83 -6.25,-0.7 -2.15,-1.52 -2.22,-4.62 -2.22,-4.62 0,0 3.71,-0.12 5.43,1.04 1.73,1.17 3.04,4.28 3.04,4.28"
   id="path87"
   style="fill:#14453d;fill-opacity:1" />

			<path
   class="st7"
   d="m 414.59,138.27 c 0,0 -7.67,2.94 -12.32,0.69 -4.65,-2.25 -5.79,-8.2 -5.79,-8.2 0,0 7.13,-1.44 10.85,0.24 3.71,1.68 7.26,7.27 7.26,7.27"
   id="path88"
   style="fill:#14453d;fill-opacity:1" />

			<path
   class="st6"
   d="m 407.93,135.91 c 0,0 -4.26,1.64 -6.85,0.39 -2.59,-1.25 -3.22,-4.56 -3.22,-4.56 0,0 3.96,-0.8 6.03,0.13 2.07,0.94 4.04,4.04 4.04,4.04"
   id="path89"
   style="fill:#14453d;fill-opacity:1" />

			<path
   class="st7"
   d="m 419.23,111.49 c 0,0 -2.11,7.94 -6.65,10.39 -4.54,2.46 -10.04,-0.1 -10.04,-0.1 0,0 3.01,-6.63 6.55,-8.65 3.53,-2.03 10.14,-1.64 10.14,-1.64"
   id="path90"
   style="fill:#14453d;fill-opacity:1" />

			<path
   class="st6"
   d="m 413.42,115.51 c 0,0 -1.17,4.41 -3.7,5.78 -2.53,1.37 -5.58,-0.06 -5.58,-0.06 0,0 1.67,-3.68 3.64,-4.81 1.97,-1.12 5.64,-0.91 5.64,-0.91"
   id="path91"
   style="fill:#14453d;fill-opacity:1" />

			<path
   class="st7"
   d="m 344.1,101.88 c 0,0 6.11,0.32 8.59,3.26 2.49,2.93 1.47,7.34 1.47,7.34 0,0 -5.29,-1.17 -7.31,-3.45 -2.02,-2.27 -2.75,-7.15 -2.75,-7.15"
   id="path92"
   style="fill:#14453d;fill-opacity:1" />

			<path
   class="st6"
   d="m 347.92,105.5 c 0,0 3.4,0.18 4.78,1.81 1.38,1.63 0.81,4.08 0.81,4.08 0,0 -2.94,-0.65 -4.07,-1.91 -1.11,-1.26 -1.52,-3.98 -1.52,-3.98"
   id="path93"
   style="fill:#14453d;fill-opacity:1" />

			<path
   class="st7"
   d="m 356.33,107.16 c 0,0 5.82,4.01 6.49,8.41 0.67,4.39 -3,8.11 -3,8.11 0,0 -4.5,-4.36 -5.11,-7.82 -0.62,-3.46 1.62,-8.7 1.62,-8.7"
   id="path94"
   style="fill:#14453d;fill-opacity:1" />

			<path
   class="st6"
   d="m 357.9,113.03 c 0,0 3.24,2.23 3.61,4.67 0.37,2.45 -1.67,4.51 -1.67,4.51 0,0 -2.5,-2.42 -2.84,-4.34 -0.34,-1.93 0.9,-4.84 0.9,-4.84"
   id="path95"
   style="fill:#14453d;fill-opacity:1" />

			<path
   class="st7"
   d="m 391.21,102.75 c 0,0 6.64,3.64 7.84,8.26 1.19,4.61 -2.32,8.98 -2.32,8.98 0,0 -5.27,-4.16 -6.3,-7.78 -1.03,-3.63 0.78,-9.46 0.78,-9.46"
   id="path96"
   style="fill:#14453d;fill-opacity:1" />

			<path
   class="st6"
   d="m 393.53,108.84 c 0,0 3.7,2.03 4.36,4.59 0.66,2.56 -1.29,4.99 -1.29,4.99 0,0 -2.93,-2.31 -3.5,-4.32 -0.58,-2.02 0.43,-5.26 0.43,-5.26"
   id="path97-2"
   style="fill:#14453d;fill-opacity:1" />

			<path
   class="st7"
   d="m 393.25,148.19 c 0,0 -4.08,-6.39 -2.91,-11.01 1.17,-4.62 6.34,-6.76 6.34,-6.76 0,0 2.62,6.18 1.79,9.85 -0.83,3.67 -5.22,7.92 -5.22,7.92"
   id="path98"
   style="fill:#14453d;fill-opacity:1" />

			<path
   class="st6"
   d="m 394.14,141.73 c 0,0 -2.27,-3.55 -1.62,-6.12 0.65,-2.57 3.53,-3.76 3.53,-3.76 0,0 1.46,3.43 1,5.47 -0.47,2.05 -2.91,4.41 -2.91,4.41"
   id="path99"
   style="fill:#14453d;fill-opacity:1" />

		</g>

		<path
   class="st7"
   d="m 337.68,110.05 c 0,0 7.37,3.03 9.16,7.71 1.79,4.68 -1.37,9.65 -1.37,9.65 0,0 -6,-3.73 -7.5,-7.39 -1.5,-3.66 -0.29,-9.97 -0.29,-9.97"
   id="path100"
   style="fill:#14453d;fill-opacity:1" />

		<path
   class="st6"
   d="m 340.82,116.15 c 0,0 4.1,1.68 5.1,4.29 0.99,2.61 -0.76,5.37 -0.76,5.37 0,0 -3.34,-2.07 -4.17,-4.11 -0.84,-2.04 -0.17,-5.55 -0.17,-5.55"
   id="path101"
   style="fill:#14453d;fill-opacity:1" />

		<path
   class="st7"
   d="m 327.21,127.97 c 0,0 4.8,-5.87 9.55,-6.19 4.76,-0.33 8.4,3.92 8.4,3.92 0,0 -5.06,4.42 -8.81,4.77 -3.74,0.35 -9.14,-2.5 -9.14,-2.5"
   id="path102"
   style="fill:#14453d;fill-opacity:1" />

		<path
   class="st6"
   d="m 333.63,126.8 c 0,0 2.67,-3.26 5.31,-3.45 2.64,-0.18 4.67,2.18 4.67,2.18 0,0 -2.81,2.46 -4.89,2.65 -2.09,0.21 -5.09,-1.38 -5.09,-1.38"
   id="path103"
   style="fill:#14453d;fill-opacity:1" />

		<path
   class="st7"
   d="m 333.47,138.24 c 0,0 0.59,-7.56 4.31,-10.54 3.72,-2.98 9.14,-1.57 9.14,-1.57 0,0 -1.63,6.51 -4.51,8.94 -2.87,2.42 -8.94,3.17 -8.94,3.17"
   id="path104"
   style="fill:#14453d;fill-opacity:1" />

		<path
   class="st6"
   d="m 338.08,133.62 c 0,0 0.33,-4.2 2.4,-5.86 2.07,-1.66 5.08,-0.87 5.08,-0.87 0,0 -0.91,3.62 -2.5,4.97 -1.61,1.34 -4.98,1.76 -4.98,1.76"
   id="path105"
   style="fill:#14453d;fill-opacity:1" />

	</g>
</svg>
