<?xml version="1.0" encoding="UTF-8" standalone="no"?>
<!-- Generator: Adobe Illustrator 27.5.0, SVG Export Plug-In . SVG Version: 6.00 Build 0)  -->

<svg
   version="1.1"
   x="0px"
   y="0px"
   viewBox="0 0 40 40"
   xml:space="preserve"
   id="svg6"
   sodipodi:docname="author-icon.svg"
   width="40"
   height="40"
   inkscape:version="1.3.2 (091e20e, 2023-11-25, custom)"
   inkscape:export-filename="author-icon.png"
   inkscape:export-xdpi="96"
   inkscape:export-ydpi="96"
   xmlns:inkscape="http://www.inkscape.org/namespaces/inkscape"
   xmlns:sodipodi="http://sodipodi.sourceforge.net/DTD/sodipodi-0.dtd"
   xmlns="http://www.w3.org/2000/svg"
   xmlns:svg="http://www.w3.org/2000/svg"><defs
   id="defs6" /><sodipodi:namedview
   id="namedview6"
   pagecolor="#ffffff"
   bordercolor="#000000"
   borderopacity="0.25"
   inkscape:showpageshadow="2"
   inkscape:pageopacity="0.0"
   inkscape:pagecheckerboard="0"
   inkscape:deskcolor="#d1d1d1"
   inkscape:zoom="0.17312834"
   inkscape:cx="155.95367"
   inkscape:cy="1094.5637"
   inkscape:window-width="1920"
   inkscape:window-height="991"
   inkscape:window-x="-9"
   inkscape:window-y="-9"
   inkscape:window-maximized="1"
   inkscape:current-layer="svg6" />
<g
   id="Bg">
	<g
   id="g2">
		<g
   id="g1">
			<rect
   style="fill:#ffffff"
   width="1122"
   height="1122"
   id="rect1"
   x="0"
   y="0" />
		</g>
	</g>
</g>
<g
   id="Object"
   transform="matrix(1.6419834,0,0,1.6419834,-360.15271,-360.15286)">
	<g
   id="g6">
		<path
   style="fill:#616e7d"
   d="m 330.043,796.912 -2.257,0.194 -84.941,84.931 -0.206,2.237 2.157,0.626 160.864,-70.261 0.955,-1.021 27.189,-75.767 -0.422,-1.85 -51.464,-51.474 -1.96,-0.372 -71.671,31.271 -0.92,0.92 -70.267,160.847 0.623,2.167 2.247,-0.211 84.926,-84.924 0.186,-2.262 c -5.58,-7.942 -4.855,-18.95 2.227,-26.044 7.962,-7.935 20.816,-7.935 28.778,0 7.922,7.962 7.922,20.811 0,28.768 -7.093,7.101 -18.101,7.812 -26.044,2.225 z"
   id="path2" />
		<path
   style="fill:#82bfab"
   d="M 509.115,502.751 619.26,612.884 C 753.408,474.621 910.533,269.781 881.368,240.629 852.228,211.481 647.385,368.599 509.115,502.751 Z"
   id="path3" />
		<path
   style="fill:#82bfab"
   d="m 417.156,704.843 c 25.179,25.187 40.164,52.677 122.089,-15.962 L 433.131,582.757 c -68.644,81.928 -41.153,96.904 -15.975,122.086 z"
   id="path4" />
		<path
   style="fill:#aad4c8"
   d="m 539.245,688.88 c 9.229,-7.731 19.312,-16.688 30.341,-26.998 L 460.13,552.41 c -10.315,11.039 -19.283,21.127 -26.999,30.347 z"
   id="path5" />
		<path
   style="fill:#616e7d"
   d="m 460.13,552.41 109.456,109.472 c 9.651,-9.018 19.961,-18.971 31.171,-30.18 6.097,-6.087 12.275,-12.406 18.503,-18.817 L 509.115,502.751 c -6.41,6.213 -12.723,12.401 -18.825,18.495 -11.195,11.2 -21.152,21.518 -30.16,31.164 z"
   id="path6" />
	</g>
</g>
<rect
   style="fill:#14453d;stroke:#14453d;stroke-width:3.164;stroke-linecap:round;stroke-linejoin:round;stroke-miterlimit:1"
   id="rect6"
   width="606.48651"
   height="710.45563"
   x="277.25098"
   y="155.95367"
   rx="2.1165826" /></svg>
