<?xml version="1.0" encoding="UTF-8" standalone="no"?>
<svg
   width="28"
   height="28"
   viewBox="0 0 28 28"
   fill="none"
   version="1.1"
   id="svg2"
   sodipodi:docname="contact-icon4.svg"
   inkscape:version="1.3.2 (091e20e, 2023-11-25, custom)"
   xmlns:inkscape="http://www.inkscape.org/namespaces/inkscape"
   xmlns:sodipodi="http://sodipodi.sourceforge.net/DTD/sodipodi-0.dtd"
   xmlns="http://www.w3.org/2000/svg"
   xmlns:svg="http://www.w3.org/2000/svg">
  <sodipodi:namedview
     id="namedview2"
     pagecolor="#ffffff"
     bordercolor="#000000"
     borderopacity="0.25"
     inkscape:showpageshadow="2"
     inkscape:pageopacity="0.0"
     inkscape:pagecheckerboard="0"
     inkscape:deskcolor="#d1d1d1"
     inkscape:zoom="9.3944187"
     inkscape:cx="8.0899098"
     inkscape:cy="17.510397"
     inkscape:window-width="1920"
     inkscape:window-height="991"
     inkscape:window-x="-9"
     inkscape:window-y="-9"
     inkscape:window-maximized="1"
     inkscape:current-layer="svg2" />
  <defs
     id="defs2">
    <clipPath
       id="clip0_11347_9770">
      <rect
         width="28"
         height="28"
         fill="white"
         id="rect2" />
    </clipPath>
  </defs>
  <path
     d="m 8.0902162,24.423645 v -11.11035 c 0,-0.662062 0,-0.993006 0.1288296,-1.245833 0.1133259,-0.22244 0.2941325,-0.403279 0.5165293,-0.516507 0.2528368,-0.128884 0.5838244,-0.128884 1.2457772,-0.128884 h 8.0372617 c 0.662041,0 0.992952,0 1.245855,0.128884 0.222462,0.113228 0.403137,0.294067 0.516496,0.516507 0.128852,0.252827 0.128852,0.583771 0.128852,1.245833 v 11.11035 M 11.636084,16.14999 h 4.727864 m -4.727864,4.727787 h 4.727864 M 3.3623956,11.999033 v 10.533519 c 0,0.661823 0,0.992843 0.1288187,1.245745 0.113326,0.222354 0.2941434,0.403138 0.5165402,0.516497 0.2528368,0.128851 0.5838137,0.128851 1.2457671,0.128851 H 22.746511 c 0.661931,0 0.992952,0 1.245746,-0.128851 0.222461,-0.113359 0.403137,-0.294143 0.516496,-0.516497 0.128852,-0.252902 0.128852,-0.583922 0.128852,-1.245745 V 11.999033 c 0,-1.269115 0,-1.903695 -0.192896,-2.4643127 C 24.27418,9.0389534 23.995857,8.5871771 23.629596,8.2119151 23.215766,7.7875783 22.648864,7.5022506 21.515276,6.9315731 L 16.551062,4.4325652 C 15.615825,3.9618376 15.148424,3.7264683 14.657677,3.6338503 c -0.434669,-0.082036 -0.880685,-0.082036 -1.315354,0 -0.490715,0.092617 -0.95817,0.3279764 -1.89333,0.7987149 L 6.484778,6.9315731 C 5.3511585,7.5022506 4.7843324,7.7875783 4.3703059,8.2119151 4.004176,8.5871771 3.7257981,9.0389534 3.5552582,9.5347203 3.3623956,10.095338 3.3623956,10.729929 3.3623956,11.999033 Z"
     stroke="#007f5f"
     stroke-width="1.4"
     stroke-linecap="round"
     stroke-linejoin="round"
     id="path1-6"
     style="stroke:#14453d;stroke-width:1.96854;stroke-dasharray:none;stroke-opacity:1" />
</svg>
