<?xml version="1.0" encoding="UTF-8" standalone="no"?>
<svg
   width="18"
   height="18"
   viewBox="0 0 18 18"
   fill="none"
   version="1.1"
   id="svg1"
   sodipodi:docname="head-icon-black.svg"
   inkscape:version="1.3.2 (091e20e, 2023-11-25, custom)"
   xmlns:inkscape="http://www.inkscape.org/namespaces/inkscape"
   xmlns:sodipodi="http://sodipodi.sourceforge.net/DTD/sodipodi-0.dtd"
   xmlns="http://www.w3.org/2000/svg"
   xmlns:svg="http://www.w3.org/2000/svg">
  <defs
     id="defs1" />
  <sodipodi:namedview
     id="namedview1"
     pagecolor="#ffffff"
     bordercolor="#000000"
     borderopacity="0.25"
     inkscape:showpageshadow="2"
     inkscape:pageopacity="0.0"
     inkscape:pagecheckerboard="0"
     inkscape:deskcolor="#d1d1d1"
     inkscape:zoom="23.913066"
     inkscape:cx="9.5972638"
     inkscape:cy="11.604535"
     inkscape:window-width="1920"
     inkscape:window-height="991"
     inkscape:window-x="-9"
     inkscape:window-y="-9"
     inkscape:window-maximized="1"
     inkscape:current-layer="svg1" />
  <path
     d="M 4.5881744,16.782232 V 8.4880307 c 0,-0.4942491 0,-0.7413085 0.096175,-0.9300504 0.084601,-0.1660584 0.2195785,-0.3010601 0.3856043,-0.385588 0.18875,-0.096216 0.435842,-0.096216 0.9300096,-0.096216 h 6.0000507 c 0.494233,0 0.741268,0 0.930066,0.096216 0.166075,0.084528 0.300955,0.2195296 0.38558,0.385588 0.09619,0.1887419 0.09619,0.4358013 0.09619,0.9300504 V 16.782232 M 7.2352685,10.605706 H 10.764758 M 7.2352685,14.135137 H 10.764758 M 1.0587183,7.5068954 v 7.8635796 c 0,0.49407 0,0.741187 0.096167,0.929985 0.084601,0.165994 0.2195867,0.300955 0.3856124,0.38558 0.18875,0.09619 0.4358339,0.09619 0.9300015,0.09619 H 15.529527 c 0.494151,0 0.741268,0 0.929985,-0.09619 0.166075,-0.08462 0.300954,-0.219586 0.38558,-0.38558 0.09619,-0.188798 0.09619,-0.435915 0.09619,-0.929985 V 7.5068954 c 0,-0.9474316 0,-1.4211637 -0.144002,-1.8396815 C 16.669976,5.2971094 16.4622,4.9598452 16.188775,4.6797012 15.879839,4.3629214 15.45663,4.1499159 14.610374,3.7238885 L 10.904443,1.8583062 C 10.206261,1.5068942 9.8573333,1.3311842 9.4909755,1.2620421 c -0.324493,-0.061242 -0.6574568,-0.061242 -0.9819498,0 -0.3663334,0.069142 -0.7153018,0.244844 -1.413426,0.5962641 L 3.3896679,3.7238885 C 2.5433879,4.1499159 2.1202356,4.3629214 1.8111528,4.6797012 1.5378261,4.9598452 1.3300088,5.2971094 1.2026958,5.6672139 1.0587183,6.0857317 1.0587183,6.5594719 1.0587183,7.5068954 Z"
     stroke="#007F5F"
     stroke-width="1.14029"
     stroke-linecap="round"
     stroke-linejoin="round"
     id="path1"
     style="fill:none;fill-opacity:1;stroke:#060808;stroke-opacity:1;stroke-width:1.44;stroke-dasharray:none" />
</svg>
